<?xml version="1.0" standalone="no"?><!DOCTYPE svg PUBLIC "-//W3C//DTD SVG 1.1//EN" "http://www.w3.org/Graphics/SVG/1.1/DTD/svg11.dtd"><svg t="1775878623086" class="icon" viewBox="0 0 1024 1024" version="1.1" xmlns="http://www.w3.org/2000/svg" p-id="28987" xmlns:xlink="http://www.w3.org/1999/xlink" width="200" height="200"><path d="M838.095 93.091H278.996c-51.179 0-92.814 41.576-92.814 92.862v139.865c0 25.706 20.839 46.545 46.545 46.545 25.706 0 46.545-20.839 46.545-46.545V186.182h558.545v651.636H279.273V698.182c0-25.706-20.839-46.545-46.545-46.545-25.706 0-46.545 20.839-46.545 46.545v139.865c0 51.315 41.554 92.862 92.814 92.862h559.098c51.179 0 92.814-41.576 92.814-92.862V185.953c0-51.314-41.554-92.862-92.814-92.862z" p-id="28988"></path><path d="M539.291 558.545l-85.015 85.015c-18.177 18.177-18.177 47.648 0 65.825s47.648 18.177 65.825 0l164.404-164.404a46.46 46.46 0 0 0 8.871-12.407c0.094-0.19 0.191-0.379 0.282-0.571 0.17-0.359 0.33-0.721 0.491-1.083 0.175-0.391 0.348-0.783 0.513-1.18 0.068-0.165 0.131-0.332 0.197-0.498A46.308 46.308 0 0 0 698.182 512c0-2.921-0.277-5.771-0.783-8.537-0.048-0.267-0.089-0.534-0.142-0.801-0.032-0.16-0.07-0.317-0.104-0.476a46.312 46.312 0 0 0-12.648-23.415L520.101 314.367c-18.177-18.177-47.648-18.177-65.825 0s-18.177 47.648 0 65.825l85.262 85.262H92.887c-25.399 0-46.342 20.839-46.342 46.545 0 25.886 20.748 46.545 46.342 46.545h446.404z" p-id="28989"></path></svg>