<svg viewBox="0 0 1024 1024" xmlns="http://www.w3.org/2000/svg">
  <path d="M25.6 514.56s-0.512 0 0 0l394.24 340.48c6.144 5.12 13.824 8.192 22.016 8.192 19.968 0 35.84-15.872 35.84-35.84V631.296c0-16.896-13.312-30.72-29.696-30.72-15.872 0-28.672 12.8-29.696 28.672V768h-2.56L87.552 487.424l331.776-284.672v115.712c0 15.36 10.752 27.648 25.088 30.208 320.512 60.416 456.704 243.712 512 448-86.016-61.44-195.584-114.688-361.984-147.456-3.072-1.024-6.144-2.048-9.728-2.048-14.848 0-27.136 12.288-27.136 27.648s12.288 27.648 27.136 27.648c103.936 19.456 194.56 49.152 258.56 84.48 35.328 18.432 79.872 46.08 132.096 82.944 0 0 0-0.512 0 0 3.584 2.56 8.192 4.096 12.8 4.096 12.288 0 22.016-9.728 23.04-21.504-20.48-284.16-232.96-505.344-534.016-553.984v-151.04c0-19.968-15.872-35.84-35.84-35.84-8.704 0-16.896 3.072-23.04 8.704L24.576 460.8c-7.168 6.656-11.776 15.872-11.776 26.112 0 11.264 5.12 20.992 12.8 27.648z" />
</svg>
