<?xml version="1.0" encoding="UTF-8" standalone="no"?>
<svg
   width="482.44336"
   height="482.44333"
   viewBox="0 0 482.44336 482.44333"
   version="1.1"
   id="svg82"
   sodipodi:docname="basketball.svg"
   inkscape:version="1.4.3 (0d15f75, 2025-12-25)"
   xmlns:inkscape="http://www.inkscape.org/namespaces/inkscape"
   xmlns:sodipodi="http://sodipodi.sourceforge.net/DTD/sodipodi-0.dtd"
   xmlns="http://www.w3.org/2000/svg"
   xmlns:svg="http://www.w3.org/2000/svg">
  <defs
     id="defs82" />
  <sodipodi:namedview
     id="namedview82"
     pagecolor="#ffffff"
     bordercolor="#000000"
     borderopacity="0.25"
     inkscape:showpageshadow="2"
     inkscape:pageopacity="0.0"
     inkscape:pagecheckerboard="0"
     inkscape:deskcolor="#d1d1d1"
     inkscape:zoom="1.130814"
     inkscape:cx="150.33419"
     inkscape:cy="275.46529"
     inkscape:window-width="2560"
     inkscape:window-height="1369"
     inkscape:window-x="-8"
     inkscape:window-y="-8"
     inkscape:window-maximized="1"
     inkscape:current-layer="g84">
    <inkscape:page
       x="0"
       y="0"
       width="482.44336"
       height="482.44333"
       id="page2"
       margin="0"
       bleed="0" />
  </sodipodi:namedview>
  <g
     id="g84"
     transform="translate(-1264.4495)">
    <path
       fill="#131213"
       transform="scale(1.34375)"
       d="m 1156.94,50.9884 c 36.23,-2.0158 67.25,25.6832 69.35,61.9186 2.1,36.235 -25.52,67.331 -61.74,69.512 -36.34,2.188 -67.55,-25.549 -69.66,-61.901 -2.1,-36.3522 25.7,-67.5073 62.05,-69.5296 z"
       id="path17" />
    <path
       fill="#ffffff"
       transform="scale(1.34375)"
       d="m 1151.62,107.541 c 6.64,1.366 11.49,2.816 17.81,5.14 -6.9,25.347 -12.2,36.339 -25.63,58.771 -3.09,-0.946 -5.83,-2.199 -8.78,-3.483 -9.69,-4.836 -16.48,-11.206 -22.95,-19.793 17.45,-8.694 32.32,-22.197 39.55,-40.635 z"
       id="path18" />
    <path
       fill="#ffffff"
       transform="scale(1.34375)"
       d="m 1154.17,59.9559 c 7.93,-0.8245 13.87,0.1731 21.55,1.8072 -0.35,17.4967 -0.75,27.1768 -4.81,44.3859 l -5.62,-1.842 c -4.36,-1.289 -7.22,-2.067 -11.73,-2.922 0.85,-16.7419 -2.23,-26.2029 -15.07,-37.334 5.65,-2.4183 9.72,-3.2838 15.68,-4.0951 z"
       id="path19" />
    <path
       fill="#ffffff"
       transform="scale(1.34375)"
       d="m 1175.13,115.046 c 2.99,1.193 5.88,2.732 8.76,4.192 -3.84,17.198 -0.78,31.588 2.35,48.69 -9.53,4.187 -14.03,5.054 -24.24,5.954 -4.24,0.004 -9.44,-0.669 -13.73,-1.1 13.8,-16.315 21.9,-37.192 26.86,-57.736 z"
       id="path20" />
    <path
       fill="#ffffff"
       transform="scale(1.34375)"
       d="m 1119.99,105.958 c 7.01,-0.734 18.01,0.257 25.27,0.764 -6.81,13.444 -12.64,19.29 -24.15,29.035 -4.17,3.31 -7.18,5.52 -11.63,8.429 -6.21,-12.855 -7.72,-22.217 -6.24,-36.251 6,-0.921 10.71,-1.514 16.75,-1.977 z"
       id="path21" />
    <path
       fill="#ffffff"
       transform="scale(1.34375)"
       d="m 1132.34,66.8749 c 4.98,1.1019 10.3,10.3744 12.11,14.873 2.73,6.7878 2.93,11.6346 2.66,18.6461 -8.49,-1.2439 -20.3,-1.5673 -28.73,-0.7121 -4.7,0.1731 -9.48,1.2541 -13.99,2.5241 4.93,-16.9834 13.2,-26.3455 27.95,-35.3311 z"
       id="path22" />
    <path
       fill="#ffffff"
       transform="scale(1.34375)"
       d="m 1180.44,63.1821 c 13.7,4.493 22.99,13.7228 30.51,25.5585 -7.71,3.0798 -10.07,4.8324 -15.88,10.3077 -4.26,4.6127 -6.25,8.1777 -9.16,13.5637 l -9.02,-4.312 c 3.43,-13.9736 5.55,-30.8112 3.55,-45.1179 z"
       id="path23" />
    <path
       fill="#ffffff"
       transform="scale(1.34375)"
       d="m 1212.55,93.1353 c 0.32,0.2958 0.72,0.6423 0.91,1.0322 6.99,14.1345 5.63,28.7205 1.48,42.7485 -2.39,-3.253 -4.86,-6.046 -7.5,-9.089 -5.01,-4.799 -10.11,-8.364 -15.78,-12.306 5.77,-11.685 10.37,-15.5576 20.89,-22.3857 z"
       id="path24" />
    <path
       fill="#ffffff"
       transform="scale(1.34375)"
       d="m 1189.44,122.495 c 9.83,5.221 15.79,11.79 22.97,20.05 -2.94,5.497 -6.1,9.391 -10.24,13.951 -3.91,3.487 -6.7,5.589 -10.96,8.656 -0.38,-16.106 -5.64,-23.025 -1.77,-42.657 z"
       id="path25" />
    <path
       fill="#131213"
       d="m 1603.5261,251.90606 c -6.2337,-7.06839 -29.1345,9.68118 -35.0427,14.08555 -46.9749,35.0974 -111.1524,83.21417 -144.674,131.39497 l 0.5954,1.00551 c 4.8169,-1.93201 49.9762,-44.61329 57.2821,-51.14255 24.8865,-22.25373 50.6902,-43.45583 77.3458,-63.55174 8.341,-6.23133 16.824,-12.26269 25.442,-18.1074 5.5669,-3.78244 14.349,-9.2392 19.0514,-13.68434 z"
       id="path38"
       style="stroke-width:1.34375" />
    <path
       fill="#131213"
       d="m 1453.7747,180.01436 c 0.9863,0.50766 2.207,1.42925 3.1517,2.09127 1.9949,3.77752 0.6718,10.3179 -0.7588,14.15298 -18.2034,48.65566 -47.1391,106.06829 -82.553,144.54961 l -1.2587,0.4522 c -0.121,-1.98327 8.9956,-16.92859 10.5385,-19.38827 28.9477,-46.01003 51.4859,-90.99615 70.8803,-141.85779 z"
       id="path45"
       style="stroke-width:1.34375" />
    <path
       fill="#131213"
       d="m 1483.2394,269.64354 2.8353,0.75518 c 0.9675,1.18519 2.7412,3.354 1.8006,4.86035 -23.2334,37.28234 -73.839,93.67684 -107.3522,118.21237 l -1.5318,0.61813 -0.2822,-0.90435 c 10.4275,-14.67106 33.4862,-38.94322 46.1443,-52.933 21.9972,-24.29903 38.5522,-44.58697 58.386,-70.60868 z"
       id="path46"
       style="stroke-width:1.34375" />
  </g>
</svg>
