<?xml version="1.0" encoding="UTF-8" standalone="no"?>
<svg
   width="482.44336"
   height="482.44336"
   viewBox="0 0 482.44336 482.44336"
   version="1.1"
   id="svg82"
   sodipodi:docname="build-wall.svg"
   inkscape:version="1.4.3 (0d15f75, 2025-12-25)"
   xmlns:inkscape="http://www.inkscape.org/namespaces/inkscape"
   xmlns:sodipodi="http://sodipodi.sourceforge.net/DTD/sodipodi-0.dtd"
   xmlns="http://www.w3.org/2000/svg"
   xmlns:svg="http://www.w3.org/2000/svg">
  <defs
     id="defs82" />
  <sodipodi:namedview
     id="namedview82"
     pagecolor="#ffffff"
     bordercolor="#000000"
     borderopacity="0.25"
     inkscape:showpageshadow="2"
     inkscape:pageopacity="0.0"
     inkscape:pagecheckerboard="0"
     inkscape:deskcolor="#d1d1d1"
     inkscape:zoom="1.5992124"
     inkscape:cx="156.32695"
     inkscape:cy="363.61648"
     inkscape:window-width="2560"
     inkscape:window-height="1369"
     inkscape:window-x="-8"
     inkscape:window-y="-8"
     inkscape:window-maximized="1"
     inkscape:current-layer="svg82">
    <inkscape:page
       x="0"
       y="0"
       width="482.44336"
       height="482.44336"
       id="page2"
       margin="0"
       bleed="0" />
  </sodipodi:namedview>
  <path
     fill="#131213"
     d="m 245.8241,113.51965 c 8.39844,0.73369 101.31068,52.05688 115.68208,59.91781 l -1.157,137.4401 c -7.4967,5.14522 -16.6544,9.99347 -24.7572,14.22762 -29.53025,15.43163 -58.72053,32.38841 -88.57597,47.14278 -5.29706,-0.60737 -106.00575,-55.98062 -114.38134,-61.51553 0.12765,-15.67887 -1.06157,-34.77759 -1.34375,-50.87303 -0.2486,-28.67562 -0.15185,-57.35394 0.29025,-86.02822 11.10609,-7.06006 31.8079,-17.33437 43.96481,-23.83006 22.86256,-12.21334 47.01109,-25.36597 70.27812,-36.48147 z"
     id="path2"
     style="stroke-width:1.34375" />
  <path
     fill="#ffffff"
     d="m 140.72673,183.07349 c 30.37009,17.23897 70.20959,39.01713 101.40475,53.87229 -0.84388,41.18996 -0.57781,82.39606 0.80087,123.57259 -18.3059,-10.97306 -38.98756,-21.72709 -57.87934,-31.85494 -13.52484,-7.24953 -31.95841,-17.42978 -45.8165,-22.97275 2.12716,-41.151 1.62056,-81.4205 1.49022,-122.61719 z"
     id="path3"
     style="stroke-width:1.34375" />
  <path
     fill="#ffffff"
     d="m 351.56648,183.54784 c 0.9487,3.0194 0.1881,33.85712 0.3077,39.12731 0.6034,26.33347 -0.9057,56.74791 1.3451,82.82338 -10.539,4.48543 -25.16843,12.49553 -35.3648,17.87993 -22.06706,11.6221 -43.94063,23.61103 -65.60994,35.9601 l -1.48215,0.13572 c -0.50794,-1.03872 0.40043,-110.23185 0.30771,-122.08641 33.82488,-17.33034 67.32994,-35.27881 100.49638,-53.84003 z"
     id="path4"
     style="stroke-width:1.34375" />
  <path
     fill="#131213"
     d="m 304.64542,225.95121 c 6.11272,3.1605 4.62518,28.54394 4.62115,35.52338 6.28203,-4.15219 21.85878,-14.64285 28.80866,-15.23275 l 0.57515,1.05484 c -4.22746,7.67953 -21.86687,19.20353 -29.18359,24.08 0.37491,10.65728 0.48241,36.05281 -3.34325,45.14866 l -1.22684,-0.93256 c -3.59991,-6.78863 -3.28681,-31.49885 -3.37953,-40.1311 -6.88538,4.085 -22.03885,13.74656 -29.46038,14.2115 l -0.70547,-1.04006 c 3.87807,-6.76847 23.1246,-18.33009 30.18735,-22.65831 0.31712,-12.24022 0.21768,-28.41091 3.10675,-40.0236 z"
     id="path5"
     style="stroke-width:1.34375" />
  <path
     fill="#ffffff"
     d="m 245.88995,123.35321 c 1.78181,-0.0726 91.28094,47.78778 99.97093,52.8591 -31.2099,15.79578 -68.47478,35.52068 -98.77365,52.87656 -1.74553,-0.18006 -90.83347,-48.27959 -99.93872,-53.08753 32.42872,-17.8665 65.99425,-34.55319 98.74144,-52.64813 z"
     id="path6"
     style="stroke-width:1.34375" />
  <path
     fill="#131213"
     d="m 385.76268,265.56231 c 29.5846,6.84012 61.6781,22.67444 54.1168,52.72338 -8.9319,35.4965 -70.9895,35.59288 -84.9454,35.66279 9.8332,-1.74744 46.5884,-0.87665 72.4296,-28.52807 29.1146,-31.15424 -27.3594,-56.32517 -41.601,-59.8581 z"
     id="path36"
     sodipodi:nodetypes="cscsc"
     style="stroke-width:1.34375" />
  <path
     fill="#131213"
     d="m 139.23651,335.56843 c -25.32098,-10.60822 -25.34071,-10.89601 -33.15768,-16.92503 -7.18541,-5.54196 -7.93237,-15.11845 -3.3172,-28.26633 -8.30809,10.69574 -7.48435,20.44346 -3.5229,24.67925 7.12898,7.62268 11.58582,10.77202 39.99778,20.51211 z"
     id="path36-61"
     sodipodi:nodetypes="cscsc"
     style="stroke-width:1.34375" />
  <path
     fill="#131213"
     d="m 100.44906,257.09878 c -29.58466,6.84012 -61.67813,22.67444 -54.11685,52.72338 8.93191,35.4965 57.28262,45.09932 98.87345,61.30803 -49.84863,-25.84513 -74.44445,-37.13372 -86.3576,-54.17331 -24.43292,-34.94685 27.3594,-56.32516 41.601,-59.8581 z"
     id="path36-6"
     sodipodi:nodetypes="cscsc"
     style="stroke-width:1.34375" />
  <path
     fill="#131213"
     d="m 391.92268,143.71501 0.3138,0.21923 c 0.6837,1.80394 -7.0413,60.67836 -7.7148,62.75884 -0.1901,-0.0882 -0.5345,-0.33275 -0.7219,-0.45636 -1.1274,-2.45288 7.0341,-59.86016 8.1229,-62.52174 z"
     id="path55-9"
     style="stroke-width:0.384327"
     sodipodi:nodetypes="cccccc" />
  <path
     fill="#131213"
     d="m 99.34473,134.50141 -0.31119,0.22302 c -0.6617,1.81211 7.77671,60.58851 8.47538,62.66065 0.18907,-0.0905 0.53049,-0.3392 0.71636,-0.46508 1.09759,-2.46636 -7.75958,-59.77044 -8.88054,-62.41862 z"
     id="path55-9-5"
     style="stroke-width:0.384327"
     sodipodi:nodetypes="cccccc" />
  <path
     fill="#131213"
     d="m 73.6523,110.81156 -0.28311,0.25774 c -0.44614,1.87683 14.77943,59.27067 15.71465,61.24736 0.17726,-0.11189 0.48738,-0.39866 0.65734,-0.54534 C 90.54407,169.19391 69.83949,60.74465 68.41775,58.24503 Z"
     id="path55-9-7-4"
     style="stroke-width:0.384327"
     sodipodi:nodetypes="cccccc"
     inkscape:transform-center-x="-2.5689778"
     inkscape:transform-center-y="16.971413" />
  <path
     fill="#131213"
     d="m 413.79388,126.33916 0.2854,0.25523 c 0.4625,1.87288 -14.2613,59.39749 -15.1793,61.38229 -0.1782,-0.11034 -0.4908,-0.39439 -0.6621,-0.53958 -0.8251,-2.57039 18.9314,-111.19623 20.3313,-113.70818 z"
     id="path55-9-7-4-1"
     style="stroke-width:0.384327"
     sodipodi:nodetypes="cccccc" />
</svg>
