<?xml version="1.0" standalone="no"?><!DOCTYPE svg PUBLIC "-//W3C//DTD SVG 1.1//EN" "http://www.w3.org/Graphics/SVG/1.1/DTD/svg11.dtd"><svg t="1775998901474" class="icon" viewBox="0 0 1024 1024" version="1.1" xmlns="http://www.w3.org/2000/svg" p-id="18928" xmlns:xlink="http://www.w3.org/1999/xlink" width="200" height="200"><path d="M213.333333 85.333333C143.146667 85.333333 85.333333 143.146667 85.333333 213.333333v597.333334c0 70.186667 57.813333 128 128 128h597.333334c70.186667 0 128-57.813333 128-128V213.333333c0-70.186667-57.813333-128-128-128z m0 85.333334h597.333334c24.362667 0 42.666667 18.304 42.666666 42.666666v597.333334c0 24.362667-18.304 42.666667-42.666666 42.666666H213.333333c-24.362667 0-42.666667-18.304-42.666666-42.666666V213.333333c0-24.362667 18.304-42.666667 42.666666-42.666666z" fill="#000000" p-id="18929"></path><path d="M512 469.333333a42.666667 42.666667 0 0 0-42.666667 42.666667 42.666667 42.666667 0 0 0 42.666667 42.666667h0.426667a42.666667 42.666667 0 0 0 42.666666-42.666667 42.666667 42.666667 0 0 0-42.666666-42.666667z" fill="#000000" p-id="18930"></path></svg>