<?xml version="1.0" encoding="UTF-8" standalone="no"?>
<svg
   width="482.44336"
   height="482.44333"
   viewBox="0 0 482.44336 482.44333"
   version="1.1"
   id="svg82"
   sodipodi:docname="hook.svg"
   inkscape:version="1.4.3 (0d15f75, 2025-12-25)"
   xmlns:inkscape="http://www.inkscape.org/namespaces/inkscape"
   xmlns:sodipodi="http://sodipodi.sourceforge.net/DTD/sodipodi-0.dtd"
   xmlns="http://www.w3.org/2000/svg"
   xmlns:svg="http://www.w3.org/2000/svg">
  <defs
     id="defs82" />
  <sodipodi:namedview
     id="namedview82"
     pagecolor="#ffffff"
     bordercolor="#000000"
     borderopacity="0.25"
     inkscape:showpageshadow="2"
     inkscape:pageopacity="0.0"
     inkscape:pagecheckerboard="0"
     inkscape:deskcolor="#d1d1d1"
     inkscape:zoom="1.5992124"
     inkscape:cx="156.95226"
     inkscape:cy="169.77107"
     inkscape:window-width="2560"
     inkscape:window-height="1369"
     inkscape:window-x="-8"
     inkscape:window-y="-8"
     inkscape:window-maximized="1"
     inkscape:current-layer="g83">
    <inkscape:page
       x="0"
       y="0"
       width="482.44336"
       height="482.44333"
       id="page2"
       margin="0"
       bleed="0" />
  </sodipodi:namedview>
  <g
     id="g83"
     transform="translate(-671.8208)">
    <path
       fill="#131213"
       d="m 947.16716,73.343637 c 3.2427,-0.18094 2.64752,-0.64108 4.98642,0.7388 0.92286,3.90242 1.74875,32.980453 1.97884,38.785213 5.40979,-4.18366 30.80064,-20.623633 36.55304,-20.154453 0.6715,0.46026 2.82,1.91474 3.3667,1.92606 5.2025,0.72291 9.31984,5.473533 10.71804,16.379043 -1.1626,0.80026 -0.8211,4.31807 -0.8331,5.63483 -1.6554,3.99651 -28.26324,16.32301 -34.04175,19.24173 5.34124,3.66475 21.28401,13.00123 21.44991,18.8155 -5.12365,4.78031 -118.56797,27.26897 -132.74165,30.78924 6.56002,-10.13978 20.79356,-27.34778 28.64771,-37.33662 19.7199,-25.14012 39.69352,-50.080603 59.91584,-74.819343 z"
       id="path32"
       style="stroke-width:1.34375"
       sodipodi:nodetypes="cccccccccccc" />
    <path
       fill="#ffffff"
       d="m 943.31461,92.815057 0.48741,0.27788 c 1.22008,1.74497 2.35874,27.995843 3.33541,33.623063 -16.44014,7.84963 -42.52952,25.31462 -58.64295,35.52059 l -0.32117,-0.0786 c 0.28706,-1.91027 49.3687,-62.267583 55.1413,-69.342963 z"
       id="path33"
       style="stroke-width:1.34375" />
    <path
       fill="#ffffff"
       d="m 948.35518,131.67658 c 2.86602,-0.17301 21.91851,16.09294 25.47255,18.96048 -20.75145,3.9763 -43.28661,9.69033 -63.96708,14.57648 l -23.05174,5.60371 c 20.16761,-12.13463 41.8486,-26.19571 61.54627,-39.14067 z"
       id="path34"
       style="stroke-width:1.34375" />
    <path
       fill="#ffffff"
       d="m 987.3402,101.82731 c 1.96246,0.93955 5.87046,10.00873 7.03716,12.4327 -5.1835,2.46376 -29.6028,17.61256 -31.0768,17.57709 -4.19971,-2.7672 -9.12081,-5.28562 -7.88165,-11.13832 3.03946,-5.53466 23.69573,-14.06992 31.92129,-18.87147 z"
       id="path35"
       style="stroke-width:1.34375" />
    <path
       fill="#131213"
       transform="scale(1.34375)"
       d="m 770.375,183.89 c 3.692,0.963 13.451,12.417 15.836,15.945 -4.531,0.196 -10.216,-1.259 -13.587,0.86 -3.435,3.051 -5.332,5.023 -9.804,5.987 l -1.065,-1.01 c 0.853,-4.719 5.154,-7.756 8.628,-10.827 -0.073,-3.591 -0.011,-7.349 -0.008,-10.955 z"
       id="path51" />
    <path
       fill="#131213"
       transform="scale(1.34375)"
       d="m 636.435,249.7 c 2.34,0.659 6.16,4.494 8.166,6.285 3.948,-0.849 8.589,-2.527 11.473,1.112 l -0.7,1.347 c -2.279,1.886 -4.74,1.952 -7.688,2.394 -3.646,0.148 -7.576,7.898 -9.878,10.966 0.259,-9.139 -0.16,-12.95 -1.373,-22.104 z"
       id="path53" />
    <path
       fill="#131213"
       transform="scale(1.34375)"
       d="m 795.65,168.443 c 2.482,-0.026 3.102,0.329 3.741,2.511 -0.838,4.191 -7.692,10.796 -10.733,14.073 -1.695,-0.589 -1.734,-0.676 -3.014,-1.993 -0.127,-4.697 6.624,-10.793 10.006,-14.591 z"
       id="path58" />
    <path
       fill="#131213"
       transform="scale(1.34375)"
       d="m 751.219,209.912 c 1.879,-0.066 2.469,0.128 3.847,1.189 l 0.157,1.416 c -1.472,3.696 -9.749,8.329 -13.277,10.579 -1.812,-0.093 -2.499,-0.597 -3.483,-1.938 0.833,-4.099 8.871,-8.585 12.756,-11.246 z"
       id="path59" />
    <path
       fill="#131213"
       transform="scale(1.34375)"
       d="m 729.072,224.277 c 1.974,0.749 2.371,1.737 2.671,3.526 -1.599,3.55 -10.529,7.153 -14.276,8.969 -1.819,-0.714 -2.213,-1.086 -2.807,-2.821 0.999,-3.335 10.821,-7.728 14.412,-9.674 z"
       id="path60" />
    <path
       fill="#131213"
       transform="scale(1.34375)"
       d="m 704.4,236.868 c 2.032,0.321 2.892,1.432 3.191,3.229 -1.803,3.287 -10.091,6.006 -13.755,7.496 -1.919,-0.121 -2.253,-0.005 -3.726,-1.09 l -0.05,-1.29 c 1.536,-3.442 10.625,-6.742 14.34,-8.345 z"
       id="path61" />
    <path
       fill="#131213"
       transform="scale(1.34375)"
       d="m 809.114,146.023 2.293,1.084 c 2.801,4.446 -4.501,13.392 -7.407,16.934 -1.578,-0.892 -1.727,-1.066 -2.777,-2.551 -0.454,-4.247 5.254,-11.458 7.891,-15.467 z"
       id="path62" />
    <path
       fill="#131213"
       transform="scale(1.34375)"
       d="m 811.626,71.0737 c 1.069,0.4714 2.076,1.0717 3,1.7874 2.755,2.1676 6.578,7.402 6.897,11.2048 0.193,2.3019 -0.68,2.7419 -2.063,4.3559 -2.527,-1.6575 -8.157,-10.5326 -9.624,-13.7646 -0.449,-0.9887 1.018,-2.5182 1.79,-3.5835 z"
       id="path63" />
    <path
       fill="#131213"
       transform="scale(1.34375)"
       d="m 820.203,96.1421 c 1.709,0.178 3.404,0.4748 3.963,2.3256 1.256,4.1633 0.634,12.1993 -0.893,16.1413 -0.709,-10e-4 -1.891,-0.005 -2.491,-0.297 -4.082,-1.987 -1.974,-15.0465 -0.579,-18.1699 z"
       id="path64" />
    <path
       fill="#131213"
       transform="scale(1.34375)"
       d="m 816.941,122.295 c 2.77,0.687 1.909,0.136 3.766,1.873 1.565,4.037 -2.284,11.643 -3.942,15.797 -2.705,-0.379 -1.878,0.075 -3.691,-1.429 -1.552,-3.761 2.323,-12.228 3.867,-16.241 z"
       id="path65" />
    <path
       fill="#131213"
       transform="scale(1.34375)"
       d="m 678.68,247.501 1.52,0.028 c 1.906,1.24 1.336,0.54 2.171,2.623 -2.082,3.64 -9.447,4.965 -14.012,6.411 -1.033,0.039 -2.457,-0.596 -3.491,-0.974 -1.639,-4.643 10.565,-7.126 13.812,-8.088 z"
       id="path66" />
    <path
       fill="#131213"
       transform="scale(1.34375)"
       d="m 784.884,64.5197 c 4.271,-0.2741 14.478,-1.1421 16.616,3.157 -0.885,1.5285 -0.908,1.1757 -2.719,2.1866 -4.474,-0.7408 -15.134,0.4777 -16.558,-3.0332 1.001,-1.7003 0.732,-1.1907 2.661,-2.3104 z"
       id="path68" />
    <path
       fill="#131213"
       d="m 1018.0705,91.557745 c 5.4586,-1.810169 18.4314,-6.413035 22.674,-1.552342 -0.6301,2.28818 -0.7801,1.837399 -2.7901,3.767957 -6.068,0.560015 -19.5103,5.772678 -22.5565,1.693536 0.7224,-2.551001 0.5462,-1.796982 2.6726,-3.909151 z"
       id="path68-8"
       style="stroke-width:1.34375" />
    <path
       fill="#131213"
       transform="scale(1.34375)"
       d="m 625.795,258.975 1.659,0.228 0.785,1.821 -0.022,-1.249 c 0.422,1.101 0.198,0.988 -0.176,2.384 -3.105,2.847 -9.746,2.336 -13.955,2.358 l -1.732,-0.2 c -1.541,-1.474 -1.125,-0.722 -1.536,-2.86 l 1.075,-1.21 c 3.353,-1.258 9.969,-1.126 13.902,-1.272 z"
       id="path69" />
    <path
       fill="#131213"
       transform="scale(1.34375)"
       d="m 585.525,259.313 c 5.109,0.035 10.266,-0.369 15.065,1.091 1.445,1.634 1.024,0.947 0.85,3.863 -3.592,-0.109 -11.883,0.229 -14.818,-1.571 -1.147,-0.702 -0.95,-1.972 -1.097,-3.383 z"
       id="path70" />
    <path
       fill="#131213"
       transform="scale(1.34375)"
       d="m 561.507,255.838 c 4.417,0.368 10.116,0.796 14.154,2.472 1.516,1.715 1.128,0.835 1.122,3.635 -3.196,-0.045 -11.212,-0.986 -13.899,-2.768 -1.408,-0.934 -1.106,-1.542 -1.377,-3.339 z"
       id="path72" />
    <path
       fill="#131213"
       transform="scale(1.34375)"
       d="m 541.905,245.971 c 3.256,1.72 8.399,4.427 11.266,6.753 0.972,0.79 0.446,1.942 0.222,3.255 -0.507,-0.112 -1.008,-0.249 -1.5,-0.413 -2.216,-0.723 -9.875,-4.569 -10.622,-6.983 -0.35,-1.131 0.052,-1.302 0.634,-2.612 z"
       id="path73" />
    <path
       fill="#131213"
       transform="scale(1.34375)"
       d="m 529.468,229.363 1.359,0.412 c 1.709,1.624 5.163,9.357 5.559,11.906 -5.167,-0.78 -6.923,-7.797 -6.918,-12.318 z"
       id="path75" />
    <path
       fill="#131213"
       transform="scale(1.34375)"
       d="m 531.094,209.165 0.932,1.036 c 0.434,2.47 -1.079,10.399 -2.053,12.804 -3.649,-2.829 -0.755,-10.561 1.121,-13.84 z"
       id="path77" />
    <path
       fill="#131213"
       transform="scale(1.34375)"
       d="m 541.486,193.278 1.373,0.528 c -0.113,1.591 -4.653,6.935 -6.103,9.043 l -1.075,-0.452 -0.411,-1.101 c 1.138,-2.872 4.068,-5.671 6.216,-8.018 z"
       id="path80" />
  </g>
</svg>
