<?xml version="1.0" encoding="UTF-8" standalone="no"?>
<svg
   width="482.44333"
   height="482.44336"
   viewBox="0 0 482.44333 482.44336"
   version="1.1"
   id="svg82"
   sodipodi:docname="jump.svg"
   inkscape:version="1.4.3 (0d15f75, 2025-12-25)"
   xmlns:inkscape="http://www.inkscape.org/namespaces/inkscape"
   xmlns:sodipodi="http://sodipodi.sourceforge.net/DTD/sodipodi-0.dtd"
   xmlns="http://www.w3.org/2000/svg"
   xmlns:svg="http://www.w3.org/2000/svg">
  <defs
     id="defs82" />
  <sodipodi:namedview
     id="namedview82"
     pagecolor="#ffffff"
     bordercolor="#000000"
     borderopacity="0.25"
     inkscape:showpageshadow="2"
     inkscape:pageopacity="0.0"
     inkscape:pagecheckerboard="0"
     inkscape:deskcolor="#d1d1d1"
     inkscape:zoom="2.2616279"
     inkscape:cx="99.485861"
     inkscape:cy="112.97172"
     inkscape:window-width="2560"
     inkscape:window-height="1369"
     inkscape:window-x="-8"
     inkscape:window-y="-8"
     inkscape:window-maximized="1"
     inkscape:current-layer="g82">
    <inkscape:page
       x="0"
       y="0"
       width="482.44333"
       height="482.44336"
       id="page2"
       margin="0"
       bleed="0" />
  </sodipodi:namedview>
  <g
     id="g82"
     inkscape:export-filename="g82.png"
     inkscape:export-xdpi="96"
     inkscape:export-ydpi="96"
     transform="translate(-33.766621,0.47594151)">
    <path
       fill="#131213"
       d="m 108.62071,230.67934 c 4.77035,3.48728 12.86952,103.6437 12.27824,110.38979 -0.42931,-0.17534 -1.21391,-0.69781 -1.64508,-0.96259 -3.94732,-6.68587 -10.68328,-100.89231 -10.63316,-109.4272 z"
       id="path49"
       style="stroke-width:0.885544"
       sodipodi:nodetypes="cccc" />
    <path
       fill="#131213"
       d="m 274.06097,301.37233 -0.0911,0.89935 c -2.84555,3.82901 -73.1374,46.97841 -78.03276,48.6455 -0.0339,-0.48196 0.0742,-1.47433 0.11374,-2.00107 3.65074,-5.57853 71.4966,-45.83819 78.01012,-47.54378 z"
       id="path55"
       style="stroke-width:0.885544"
       sodipodi:nodetypes="ccccc" />
    <path
       fill="#131213"
       d="m 61.182916,263.73393 c 5.541213,2.236 48.161344,79.54109 49.368084,85.33699 -4.70429,-1.18841 -48.176847,-80.2513 -49.368084,-85.33699 z"
       id="path56"
       style="stroke-width:0.885544"
       sodipodi:nodetypes="ccc" />
    <path
       fill="#131213"
       d="m 325.90597,323.70139 1.07706,0.53453 c -1.6167,2.10437 -105.86315,31.48943 -109.66419,32.37517 l -0.91859,-0.68816 0.42916,-1.17033 c 6.71969,-4.63992 101.00943,-30.29365 109.07656,-31.05121 z"
       id="path57"
       style="stroke-width:0.885544"
       sodipodi:nodetypes="cccccc" />
    <path
       fill="#131213"
       d="m 357.83648,102.95459 c 29.01156,-1.8654 39.6179,-0.0536 62.69681,16.60743 2.87025,-7.05536 11.40043,-26.40819 20.88327,-24.59158 13.85137,10.39271 37.58969,80.28104 42.55445,101.5798 -34.74789,11.29796 -70.7726,24.34985 -101.90672,34.62619 -11.46756,2.68481 -15.65066,-6.04553 -10.43556,-16.03362 4.91543,-9.41432 10.60353,-18.55585 16.23518,-27.8116 -94.94534,-15.86431 -190.1124,85.1091 -234.54619,158.64447 -1.13009,1.8705 -3.70606,6.54272 -5.50534,7.38256 -1.40556,-5.13715 3.87134,-16.18278 6.08047,-21.16675 15.98256,-35.43603 41.34719,-69.76481 69.88978,-96.30925 43.23516,-40.21037 92.13556,-67.58659 152.02247,-66.12728 45.31125,4.75285 31.37925,13.70491 15.86835,43.64366 22.35596,-5.53625 56.79752,-23.28836 79.23143,-24.00592 -9.61453,-24.08806 -21.13553,-45.5293 -30.28109,-69.19838 -1.69984,3.92133 -13.99933,23.77259 -20.53936,20.70078 -11.07385,-5.203 -6.25389,-7.04245 -17.58708,-12.58367 C 321.685,89.723808 207.78721,206.44834 158.10532,287.93835 174.55751,237.55299 264.28986,114.33319 357.83648,102.95459 Z"
       id="path31"
       style="stroke-width:1.34375"
       sodipodi:nodetypes="cccccsccccccccccccc" />
  </g>
</svg>
