<?xml version="1.0" encoding="UTF-8" standalone="no"?>
<svg
   width="482.44336"
   height="482.44336"
   viewBox="0 0 482.44336 482.44336"
   version="1.1"
   id="svg82"
   sodipodi:docname="punch.svg"
   inkscape:version="1.4.3 (0d15f75, 2025-12-25)"
   xmlns:inkscape="http://www.inkscape.org/namespaces/inkscape"
   xmlns:sodipodi="http://sodipodi.sourceforge.net/DTD/sodipodi-0.dtd"
   xmlns="http://www.w3.org/2000/svg"
   xmlns:svg="http://www.w3.org/2000/svg">
  <defs
     id="defs82" />
  <sodipodi:namedview
     id="namedview82"
     pagecolor="#ffffff"
     bordercolor="#000000"
     borderopacity="0.25"
     inkscape:showpageshadow="2"
     inkscape:pageopacity="0.0"
     inkscape:pagecheckerboard="0"
     inkscape:deskcolor="#d1d1d1"
     inkscape:zoom="2.2616279"
     inkscape:cx="135.74293"
     inkscape:cy="-26.750643"
     inkscape:window-width="2560"
     inkscape:window-height="1369"
     inkscape:window-x="-8"
     inkscape:window-y="-8"
     inkscape:window-maximized="1"
     inkscape:current-layer="g85">
    <inkscape:page
       x="0"
       y="0"
       width="482.44336"
       height="482.44336"
       id="page2"
       margin="0"
       bleed="0" />
  </sodipodi:namedview>
  <g
     id="g85"
     transform="translate(-1253.365,-534.76349)">
    <path
       fill="#131213"
       d="m 1519.3764,707.72707 c 3.87,-9.6535 14.0018,-47.25835 19.0812,-50.51425 26.1091,-16.74313 63.8685,-48.39785 97.9863,-36.90072 14.835,4.99741 6.7322,18.51284 18.1943,24.11628 15.1575,4.28388 22.1854,10.39794 20.1025,28.92288 20.2907,10.34015 16.7835,14.80409 16.891,32.85065 0,0.78341 7.9953,7.01169 8.9225,8.0746 13.9212,19.52334 -6.1141,38.78734 -23.8381,44.09784 -2.1097,0.61947 -4.2463,1.17847 -6.3829,1.677 -21.9837,26.11847 -53.5753,48.03772 -89.4131,35.75853 -11.5159,7.81525 -86.1881,52.65619 -97.489,53.13725 l -1.6394,-0.83716 c 1.505,-6.77921 29.1325,-23.44306 36.2006,-27.93656 17.1194,-11.03756 34.7091,-21.34278 52.7153,-30.88744 -2.1634,-2.51281 -4.5956,-4.72328 -5.2675,-7.82868 2.4725,-0.7955 11.8922,3.71143 15.91,4.75284 28.7831,7.47394 54.4891,-4.65341 74.296,-24.71425 -17.9391,-6.24575 -6.9338,-8.11491 -17.0925,-18.56928 -0.9541,-0.99034 -12.9538,-2.39725 -13.6525,-7.53038 -2.4457,-4.3645 -1.4782,-13.00481 -6.9069,-14.02471 -11.0591,-2.07341 -13.4644,-7.98725 -16.9985,-18.06135 3.1041,24.77606 0.6047,38.43797 -22.36,51.81635 18.3154,-26.49607 19.3769,-35.46694 5.711,-64.59138 -3.7088,-0.0941 -6.7053,0.10884 -10.0916,-1.40153 l -0.3897,-1.20803 c 2.6338,-1.45394 29.4685,-9.4815 31.5378,-8.987 l 0.215,1.27656 -2.7278,3.45747 c 4.9316,8.00875 26.23,10.10097 26.66,-0.58991 -0.215,-0.49047 -20.64,-31.22203 -21.715,-32.50531 -8.909,0.80356 -55.1609,9.54331 -61.5168,16.01213 -4.9719,5.05787 -18.705,58.88581 -24.7385,60.54937 -1.1556,-2.26287 -1.5184,-3.569 -2.244,-5.95819 -2.3113,-0.44478 -4.2194,0.78878 -6.4097,1.78585 -62.2157,28.19993 -128.2973,44.68103 -191.5341,70.29693 l -1.5521,-1.20937 135.3318,-57.16044 c 17.2134,-7.26834 48.8453,-18.75069 64.2044,-27.16659 z"
       id="path26"
       style="stroke-width:1.34375" />
    <path
       fill="#ffffff"
       d="m 1671.9726,680.79026 c 0.9675,0.5375 1.935,1.09784 2.8756,1.68103 27.211,16.90303 -13.7331,48.14253 -34.2656,51.98431 -5.7244,-0.98094 -12.564,-6.86656 -11.8519,-13.05856 2.3516,-3.04897 3.7491,-1.96994 6.8666,-3.44135 16.7297,-7.88378 28.5144,-21.43818 36.3753,-37.16543 z"
       id="path27"
       style="stroke-width:1.34375" />
    <path
       fill="#ffffff"
       d="m 1648.7392,651.41722 c 13.3569,3.09197 21.4059,11.98222 14.6334,25.6616 -8.2909,16.74581 -23.6903,29.70762 -41.0515,36.31619 -4.6897,-0.54691 -9.6616,-1.17579 -10.4141,-6.74294 4.6091,-7.88244 43.3897,-9.54331 24.08,-33.59913 6.5172,-7.86362 9.1912,-12.02925 12.7522,-21.63572 z"
       id="path28"
       style="stroke-width:1.34375" />
    <path
       fill="#ffffff"
       d="m 1618.9079,627.47697 c 9.0166,-0.98631 18.3422,0.39507 20.5594,10.88035 2.1634,10.29312 -3.9237,19.58515 -9.3659,27.72559 -4.636,-6.95928 -8.5463,-14.01262 -13.1822,-20.85097 -2.1903,-3.23575 -6.4769,-2.64853 -8.1028,-6.00387 l 1.8812,-3.999 c 0.645,-0.7525 0.4569,-0.71085 0.766,-1.77778 l -1.3304,-0.0524 c -3.8565,2.35963 -4.2731,2.97372 -7.0412,6.59378 -10.2663,0.67456 -22.6825,3.70875 -32.9219,5.93938 14.4722,-10.09022 31.2153,-16.43138 48.7378,-18.45507 z"
       id="path29"
       style="stroke-width:1.34375" />
    <path
       fill="#ffffff"
       d="m 1687.0495,713.16119 c 9.2853,3.96675 10.2259,18.96838 3.3594,26.015 -9.3794,9.61991 -20.4788,12.15153 -33.1907,13.32328 -4.3806,-1.45393 -6.0871,-2.77215 -8.694,-6.43118 l -0.2016,-1.27522 c -0.4569,-2.9791 1.8813,-3.38222 4.9047,-4.39541 15.2784,-5.13044 24.9803,-13.588 33.8222,-27.23647 z"
       id="path30"
       style="stroke-width:1.34375" />
    <path
       fill="#131213"
       d="m 1408.6648,909.08129 99.6122,-56.50738 c 25.3834,-14.68853 67.0934,-41.86722 94.9628,-50.03319 -29.6431,24.84191 -70.09,46.03419 -104.4497,63.60372 l -88.4322,44.43916 z"
       id="path44"
       style="stroke-width:1.34375" />
    <path
       fill="#131213"
       d="m 1537.3557,760.10107 c 2.6204,0.60603 1.6797,0.0672 3.5207,2.04115 l -0.551,2.08685 c -4.9315,5.35215 -27.1437,14.43187 -35.0853,18.25887 l -2.3112,0.51197 c 0.3897,-1.10187 30.3015,-20.18044 34.4268,-22.89884 z"
       id="path67"
       style="stroke-width:1.34375" />
    <path
       fill="#7d7e7e"
       d="m 1389.9061,875.92022 0.3762,0.31444 c -1.2631,2.48056 -52.9921,29.89441 -59.5886,33.7886 l -0.3359,-0.27279 -0.01,-1.15562 c 4.4128,-3.34056 15.2287,-8.97894 20.3591,-11.77663 12.9833,-7.11918 26.05,-14.08653 39.1986,-20.898 z"
       id="path71"
       style="stroke-width:1.34375" />
    <path
       fill="#7d7e7e"
       d="m 1363.394,759.36668 0.3204,0.37107 c -1.6471,2.24404 -57.1239,20.94503 -64.2626,23.72291 l -0.2875,-0.32345 0.1767,-1.14206 c 4.8943,-2.58415 16.4787,-6.40201 21.9937,-8.33453 13.9625,-4.92924 27.9827,-9.69516 42.0587,-14.29403 z"
       id="path71-4"
       style="stroke-width:1.34375" />
    <path
       fill="#575757"
       d="m 1408.6648,909.08129 1.6931,1.50231 c -9.8093,5.25406 -24.2399,13.42406 -34.4363,16.81031 9.6347,-6.06972 22.5173,-12.72397 32.7432,-18.31262 z"
       id="path74"
       style="stroke-width:1.34375" />
    <path
       fill="#575757"
       d="m 1321.3923,793.26347 c -8.9507,3.51391 -19.1216,7.81257 -28.2994,10.26222 2.0707,-1.61653 23.4525,-10.2004 26.7473,-11.47159 z"
       id="path78"
       style="stroke-width:1.34375" />
    <path
       fill="#131213"
       d="m 1549.3957,772.50657 1.4513,1.62997 -0.6181,1.7724 c -2.9294,2.58 -8.1969,4.22207 -11.9863,5.67332 l -1.3572,-0.14647 0.1344,-0.82507 c 3.7759,-3.26396 8.0625,-5.57925 12.3759,-8.10415 z"
       id="path79"
       style="stroke-width:1.34375" />
  </g>
</svg>
