<?xml version="1.0" encoding="UTF-8" standalone="no"?>
<svg
   width="482.44333"
   height="482.44336"
   viewBox="0 0 482.44333 482.44336"
   version="1.1"
   id="svg82"
   sodipodi:docname="rocket.svg"
   inkscape:version="1.4.3 (0d15f75, 2025-12-25)"
   xmlns:inkscape="http://www.inkscape.org/namespaces/inkscape"
   xmlns:sodipodi="http://sodipodi.sourceforge.net/DTD/sodipodi-0.dtd"
   xmlns="http://www.w3.org/2000/svg"
   xmlns:svg="http://www.w3.org/2000/svg">
  <defs
     id="defs82" />
  <sodipodi:namedview
     id="namedview82"
     pagecolor="#ffffff"
     bordercolor="#000000"
     borderopacity="0.25"
     inkscape:showpageshadow="2"
     inkscape:pageopacity="0.0"
     inkscape:pagecheckerboard="0"
     inkscape:deskcolor="#d1d1d1"
     inkscape:zoom="2.2616279"
     inkscape:cx="-1.3264781"
     inkscape:cy="64.33419"
     inkscape:window-width="2560"
     inkscape:window-height="1369"
     inkscape:window-x="-8"
     inkscape:window-y="-8"
     inkscape:window-maximized="1"
     inkscape:current-layer="g87">
    <inkscape:page
       x="0"
       y="0"
       width="482.44333"
       height="482.44336"
       id="page2"
       margin="0"
       bleed="0" />
  </sodipodi:namedview>
  <g
     id="g87"
     transform="translate(-91.459366,-503.95074)">
    <path
       fill="#131213"
       transform="scale(1.34375)"
       d="m 343.589,422.979 c 3.876,-0.257 12.113,-1.546 14.516,1.675 3.227,4.326 3.538,15.912 3.449,21.194 -0.702,41.695 -23.552,77.473 -52.463,105.885 2.219,9.456 3.021,19.188 2.379,28.88 -1.351,18.127 -8.412,27.38 -21.669,39.065 -5.062,4.462 -19.241,15.386 -26.094,14.862 -0.364,-0.235 -0.805,-0.519 -1.324,-0.853 -0.664,-7.868 0.151,-17.646 -0.249,-25.337 -0.388,-7.476 -1.427,-11.863 -3.649,-18.601 -2.573,-0.966 -6.408,-3.081 -8.96,-4.394 -1.68,4.811 -5.174,10.25 -7.923,14.515 -5.422,-3.577 -10.017,-7.784 -14.873,-12.061 l -9.527,7.114 c -2.816,1.931 -5.169,3.752 -8.642,3.715 -5.727,-3.463 2.942,-15.982 5.271,-20.046 -4.47,-4.008 -9.07,-8.954 -13.084,-13.407 3.54,-3.975 8.262,-6.849 12.691,-9.753 l -5.798,-7.623 c -15.057,-3.814 -40.031,5.522 -44.85,2.878 -2.896,-9.31 14.865,-35.439 22.234,-42.148 14.645,-13.332 35.224,-15.697 54.13,-15.121 23.468,-35.547 61.005,-65.678 104.435,-70.439 z"
       id="path7" />
    <path
       fill="#ffffff"
       transform="scale(1.34375)"
       d="m 298.371,447.578 c 1.153,1.113 5.091,8.111 6.954,10.418 10.299,12.874 23.926,22.681 39.403,28.356 -18.579,41.855 -48.627,69.058 -85.723,94.681 -5.411,-3.082 -10.055,-5.686 -15.137,-9.262 4.78,-4.91 7.999,-8.515 12.318,-13.834 3.897,-4.877 16.721,-24.35 12.386,-30.04 -10.447,-7.139 -35.495,23.46 -40.754,30.67 -3.463,-3.312 -7.131,-7.72 -10.333,-11.39 19.395,-41.091 42.388,-74.563 80.886,-99.599 z"
       id="path8" />
    <path
       fill="#131213"
       transform="scale(1.34375)"
       d="m 293.485,476.147 c 10.581,-2.165 20.896,4.717 22.963,15.32 2.066,10.603 -4.909,20.857 -15.527,22.827 -10.482,1.944 -20.573,-4.923 -22.613,-15.389 -2.04,-10.466 4.732,-20.621 15.177,-22.758 z"
       id="path9" />
    <path
       fill="#ffffff"
       transform="scale(1.34375)"
       d="m 296.203,483.952 c 6.033,-0.614 11.449,3.71 12.19,9.73 0.741,6.02 -3.465,11.528 -9.467,12.397 -3.997,0.579 -7.994,-1.051 -10.449,-4.259 -2.454,-3.208 -2.982,-7.493 -1.378,-11.201 1.603,-3.708 5.085,-6.259 9.104,-6.667 z"
       id="path10" />
    <path
       fill="#ffffff"
       transform="scale(1.34375)"
       d="m 348.484,430.865 c 1.102,-0.147 3.41,-0.501 3.747,0.998 3.444,15.29 -1.281,34.427 -5.643,49.047 -9.23,-4.614 -15.19,-8.663 -23.275,-14.972 -8.444,-6.968 -13.617,-12.395 -19.744,-21.448 14.949,-7.558 28.253,-12.116 44.915,-13.625 z"
       id="path11" />
    <path
       fill="#ffffff"
       transform="scale(1.34375)"
       d="m 301.78,558.481 c 2.097,2.472 1.567,14.81 1.49,18.545 -0.298,14.438 -5.645,24.174 -16.25,33.651 -1.895,1.693 -14.516,13.279 -16.456,13.208 l -0.25,-2.108 c 1.514,-13.867 0.955,-23.927 -5.734,-36.383 10.576,-5.72 28.438,-19.048 37.2,-26.913 z"
       id="path12" />
    <path
       fill="#ffffff"
       transform="scale(1.34375)"
       d="m 225.213,501.729 c 1.905,-0.29 6.527,-0.42 8.642,-0.544 -9.22,14.105 -14.617,24.789 -21.289,40.002 -10.909,-3.931 -18.597,-3.289 -29.628,-1.479 -3.55,0.649 -7.839,1.994 -11.374,2.998 15.549,-26.895 21.697,-36.549 53.649,-40.977 z"
       id="path13" />
    <path
       fill="#ffffff"
       transform="scale(1.34375)"
       d="m 263.032,533.076 0.362,0.944 c -14.188,24.81 -23.774,32.466 -44.836,51.557 l -0.461,-0.523 c 0.906,-3.028 5.338,-9.072 7.293,-11.833 11.271,-15.92 21.644,-28.806 37.642,-40.145 z"
       id="path14" />
    <path
       fill="#ffffff"
       transform="scale(1.34375)"
       d="m 237.768,578.028 c 1.078,0.266 4.875,2.998 6.046,3.794 -1.324,2.462 -2.635,4.931 -3.933,7.406 -2.255,-2.181 -5.018,-4.33 -7.471,-6.33 z"
       id="path15" />
    <path
       fill="#ffffff"
       transform="scale(1.34375)"
       d="m 218.538,561.39 3.891,3.749 c -1.587,2.533 -2.738,4.338 -4.577,6.682 l -6.194,-5.76 z"
       id="path16" />
    <path
       fill="#131213"
       d="m 244.85406,924.57928 c 2.33284,0.0271 13.38754,-12.99979 13.74384,-13.9046 0.25011,-1.12807 42.13798,-68.4783 42.89846,-69.74941 -0.13551,-0.0137 -0.41708,0.008 -0.56807,0.0151 -1.22006,0.61269 -19.56198,28.21164 -34.94615,51.54551 -11.02875,16.7278 -20.53742,31.26361 -21.12808,32.09343 z"
       id="path49-2-11-1"
       style="stroke-width:0.248295"
       sodipodi:nodetypes="ccccsc" />
    <path
       fill="#131213"
       d="m 286.68798,913.2659 c 2.26173,-0.57225 9.60472,-15.99907 9.71699,-16.965 -0.0476,-1.15448 23.16123,-76.99639 23.57018,-78.42005 -0.13449,0.0215 -0.40107,0.11472 -0.54519,0.16032 -1.02206,0.90517 -11.67026,32.28579 -20.55381,58.78532 -6.36852,18.99722 -11.83014,35.48586 -12.18816,36.43944 z"
       id="path49-2-11-1-8"
       style="stroke-width:0.248295"
       sodipodi:nodetypes="ccccsc" />
    <path
       fill="#131213"
       d="m 257.19623,764.60015 c -0.33764,1.74313 -85.97697,49.318 -87.68698,50.17307 -0.003,-0.13623 14.42178,-12.29614 14.43998,-12.44618 1.20683,-2.00946 71.15869,-36.4662 73.24704,-37.72689 z"
       id="path49-2-5"
       style="stroke-width:0.248295"
       sodipodi:nodetypes="ccccc" />
    <path
       fill="#131213"
       d="m 233.13809,795.59561 c 0.017,1.77544 -74.40719,65.48186 -75.9122,66.66094 -0.0301,-0.13289 11.67822,-14.92655 11.66612,-15.07721 0.78159,-2.20985 62.45132,-49.9317 64.24612,-51.58374 z"
       id="path49-2-5-4"
       style="stroke-width:0.248295"
       sodipodi:nodetypes="ccccc" />
  </g>
</svg>
